<svg width="519" height="561" viewBox="0 0 519 561" fill="none" xmlns="http://www.w3.org/2000/svg">
<path d="M251.835 124.338C263.832 112.096 265.221 111.322 288.549 104.951C307.969 99.423 316.628 92.6257 351.034 56.0264C364.319 41.9558 377.44 28.9606 380.193 27.1482C384.692 24.1344 384.479 24.6826 379.043 33.2155C370.604 46.5023 348.716 69.3576 331.397 82.9523C323.215 89.1804 316.421 94.6342 316.182 94.9187C316.063 95.061 318.973 96.2904 322.819 97.5781C335.295 101.499 334.422 104.889 321.613 101.658C310.464 99.0918 308.88 99.2178 302.539 103.839C298.687 106.668 287.928 110.977 278.721 113.435L261.985 117.82L244.584 140.319C221.887 170.011 217.306 181.929 219.904 204.962C220.973 213.376 221.338 219.987 220.76 219.501C220.326 219.137 218.264 214.255 216.272 208.703L212.651 198.633L209.063 207.019C206.141 214.024 202.943 218.13 187.263 233.586C171.346 249.326 166.928 254.591 156.176 271.515C140.416 295.875 139.644 300.318 150.153 310.106C158.927 318.439 165.03 319.68 175.644 315.25C189.445 309.372 195.421 303.718 212.646 279.374C230.348 254.461 229.851 256.227 225.972 236.483C225.355 232.814 225.317 229.63 226.109 229.567C228.365 229.52 230.874 237.687 232.956 252.528C234.094 260.272 236.106 270.205 237.59 274.602L240.337 282.484L248.017 282.139C252.121 281.945 256.149 280.961 256.985 279.965C257.701 279.111 259.882 278.274 261.755 278.39C266.003 278.318 272.702 273.27 271.778 270.555C271.389 269.258 272.017 264.693 273.317 260.207L275.466 252.069L265.769 263.331L256.073 274.593L260.616 265.068C267.943 249.878 278.542 220.218 280.081 209.87C280.923 204.757 280.84 196.929 279.885 192.49C278.809 188.193 278.432 184.239 278.935 183.933C279.557 183.486 283.264 174.957 287.373 165.069C291.219 155.202 296.384 145.23 298.414 142.811C301.543 139.375 301.593 139.902 298.213 146.279C290.905 160.273 287.437 174.094 286.063 194.521C285.247 205.476 283.206 221.707 281.346 230.088C279.631 238.59 278.821 245.427 279.613 245.365C280.26 245.18 279.733 250.8 277.986 257.578C275.681 268.253 275.763 270.504 279.232 273.415C281.401 275.235 286.089 276.986 289.86 277.483C293.487 277.859 297.452 279.004 298.609 279.975C301.789 282.643 289.647 283.609 281.452 281.339C270.132 278.388 264.219 281.913 250.187 300.691C235.225 320.871 234.351 324.26 244.539 320.927C253.576 318.083 262.104 319.663 268.635 325.385L273.286 329.53L265.279 326.448C251.477 321.172 237.915 326.765 217.667 345.905C211.572 351.701 205.777 355.084 197.796 357.843C191.467 359.807 183.203 363.784 179.326 366.35C173.821 369.975 167.322 371.554 153.043 372.424C134.422 373.772 120.495 378.332 114.858 384.756C113.306 386.606 112.32 391.598 112.867 395.937L113.478 403.723L98.4008 408.774C81.3822 414.376 75.3556 419.504 76.1608 427.939C76.4628 431.102 78.5434 434.787 81.1455 436.971C85.0487 440.246 89.2029 440.58 106.191 438.83C117.396 437.806 129.325 437.389 132.687 437.786C136.194 438.303 144.974 436.941 152.094 434.914C159.479 432.866 170.822 430.503 177.252 429.594C183.825 428.805 191.832 426.309 195.351 424.17C198.606 422.052 206.179 419.193 212.03 417.798C217.881 416.403 227.49 412.584 233.693 409.302C239.896 406.02 247.751 401.943 251.321 400.331C254.891 398.719 265.034 390.742 273.567 382.626C287.983 369.263 291.119 367.287 308.634 359.918C332.402 349.795 336.632 345.342 343.945 321.653C353.105 292.241 366.564 263.283 379.71 244.974C393.12 226.644 397.883 218.032 402.929 202.624C407.622 189.104 421.535 170.469 444.07 147.429C460.082 131.282 477.64 117.403 479.664 119.101C480.098 119.465 481.217 122.829 482.361 126.456C484.266 133.874 484.744 133.305 463.811 149.445C458.5 153.718 447.12 164.052 438.491 172.573C423.315 187.723 422.624 188.841 407.933 216.037C399.55 231.312 388.66 249.574 383.627 256.747C373.774 270.545 367 285.957 355.603 319.797C346.317 347.891 340.491 355.127 322.134 362.032C315.064 364.586 306.146 367.287 302.357 367.987C298.686 368.544 294.35 370.483 292.798 372.333C287.903 378.166 255.677 402.774 249.065 405.955C245.496 407.567 238.457 411.845 233.216 415.449C227.83 418.932 215.167 426.977 204.968 432.967C174.249 451.08 164.842 457.007 158.237 461.649C140.578 474.474 135.381 477.145 124.106 478.838C117.293 479.911 106.075 483.592 98.9361 486.816C86.5997 492.71 85.5439 492.794 80.4151 489.218C69.4349 481.459 69.9114 469.735 81.3736 456.075C87.0104 449.651 90.1463 447.676 98.6808 445.138L109.038 442.189L96.5124 443.318C82.1392 444.594 77.0169 442.478 73.5973 434.517C68.4804 422.706 76.2599 412.261 96.4584 403.749L107.192 399.177L106.23 393.278C104.205 380.425 118.716 372.232 150.146 368.538L170.276 366.273L188.399 344.381C198.164 332.449 210.217 316.618 214.842 309.344C219.467 302.071 225.839 293.597 229.283 290.667C234.662 285.724 234.97 284.77 233.209 277.473C232.279 273.298 231.109 269.407 230.676 269.043C230.242 268.679 222.148 278.618 212.553 290.935C191.357 318.25 185.663 322.687 169.681 323.825C158.739 324.828 158.186 324.606 148.79 316.722C140.405 309.686 139.173 307.925 138.136 301.235C137.588 296.896 138.424 290.323 140.183 286.465C142.062 282.464 156.716 263.238 174.72 241.489C208.22 200.977 207.981 201.262 217.098 172.782C221.622 158.877 232.311 144.084 251.835 124.338ZM77.5919 474.968C80.1132 486.055 84.1041 487.464 97.3519 481.364C103.844 478.325 115.854 474.581 124.225 473.119C132.451 471.535 139.955 469.344 140.791 468.348C142.701 466.072 195.798 433.032 204.684 428.607C208.493 426.711 211.245 424.898 210.956 424.656C210.667 424.413 201.724 426.851 191.009 430.226C180.413 433.459 168.975 436.228 165.782 436.216C162.47 436.347 154.652 438.031 148.204 440.137C140.606 442.733 132.185 443.669 124.115 442.717C117.271 442.066 110.911 442.306 110.075 443.302C109.359 444.156 104.186 447.09 98.5807 449.661C92.0888 452.7 86.4894 456.731 82.4299 461.569C77.1765 467.83 76.4413 469.88 77.5919 474.968ZM219.788 309.615C213.925 319.244 212.977 321.843 214.159 328.654C215.46 335.324 215.127 336.014 212.67 333.952C211.08 332.618 209.653 330.208 209.477 328.363C209.25 325.99 205.951 329.042 194.966 342.132L180.639 359.207L191.304 355.305C197.462 352.956 204.859 348.251 209.497 343.898C213.776 339.973 220.928 334.092 225.547 330.936C233.302 325.804 233.899 325.093 234.828 318.113C235.739 312.331 237.907 308.573 246.504 298.328C258.563 283.956 257.62 282.438 240.105 289.806C229.132 294.663 229.371 294.378 219.788 309.615Z" fill="#3D68BB"/>
<path d="M286.294 121.73C287.017 122.337 286.785 124.082 285.591 125.504C281.676 130.464 279.264 144.201 278.989 163.611C278.803 186.733 276.408 188.118 275.589 165.608C274.72 142.57 280.946 117.242 286.294 121.73Z" fill="#3D68BB"/>
<path d="M186.436 252.774C188.705 255.648 195.166 262.04 200.685 266.913C210.804 275.404 212.4 278.198 206.995 277.3C200.654 276.344 181.477 255.161 182.294 249.784C182.526 248.039 183.657 248.746 186.436 252.774Z" fill="#3D68BB"/>
<path d="M387.945 65.1757C390.101 64.0747 384.232 72.2436 372.292 86.4728C360.735 100.539 352.277 109.445 350.932 109.286C348.242 108.969 382.748 67.8465 387.945 65.1757Z" fill="#3D68BB"/>
<path d="M347.608 112.074C348.783 111.847 350.587 112.634 351.743 113.604C352.9 114.574 358.55 116.648 364.414 118.174L374.797 121.066L383.186 112.83C391.55 104.33 433.945 77.586 439.488 77.1452C443.064 76.9937 438.973 80.1077 420.472 92.4684C413.339 97.1523 402.379 104.929 396.327 109.793C390.131 114.535 383.696 119.562 381.949 120.763C378.813 122.739 379.272 123.367 388.014 129.975C400.321 139.089 400.918 143.955 388.687 135.632C383.703 132.177 373.213 126.77 365.206 123.688C351.788 118.248 342.712 112.33 347.608 112.074Z" fill="#3D68BB"/>
<path d="M131.445 401.099C139.195 400.085 148.773 400.12 152.449 401.023C161.581 403.351 178.066 401.907 188.033 397.662C192.634 395.702 204.216 393.055 214.052 391.609C226.502 389.689 233.477 387.541 237.305 384.448C240.39 381.945 244.89 378.931 247.573 377.788C250.257 376.645 260.67 370.107 270.794 363.326C280.918 356.545 296.529 347.336 305.415 342.911C323.954 333.734 326.273 331.558 332.764 317.363C336.257 309.383 338.953 305.583 343.547 302.164L349.743 297.422L345.779 307.431C343.548 313.319 336.611 324.229 329.642 333.415L317.614 349.51L306.202 352.542C292.463 356.291 288.919 358.166 276.244 368.868C270.695 373.426 261.72 379.717 256.259 382.409C250.823 385.365 242.729 389.727 238.179 392.213C233.774 394.821 223.586 398.154 215.36 399.738C207.278 401.443 193.847 404.238 185.646 406.085C173.152 408.938 167.967 408.952 156.792 406.122C149.031 404.216 140.816 403.143 138.346 403.738C127.82 406.301 113.516 406.908 115.187 404.915C116.142 403.777 123.552 401.993 131.445 401.099Z" fill="#3D68BB"/>
</svg>
